<?xml version="1.0"?><svg data-name="Layer 1" id="Layer_1" viewBox="0 0 48 48" xmlns="http://www.w3.org/2000/svg"><defs><style>
      .cls-1, .cls-2 {
        fill: none;
        stroke: #353535;
        stroke-miterlimit: 10;
        stroke-width: 2px;
      }

      .cls-1 {
        stroke-linecap: round;
      }
    </style></defs><title/><path class="cls-1" d="M18.04616,32.21659a2.21685,2.21685,0,1,1-.09226-4.43273"/><path class="cls-1" d="M18,35.91307A5.913,5.913,0,0,1,18,24.087"/><g><path class="cls-1" d="M34,23H47V37H19V23H30l1.674-3.42369c-1.59493-1.59492-1.599-1.5992-3.194-3.19412l-3.55792,1.69132-3.28758-1.36176L21.069,13c-2.25557,0-3.82625,0-6.08182,0l-.56553,3.71174-3.28758,1.36176L7.57617,16.38219c-1.59493,1.59492-1.599,1.5992-3.194,3.19412l1.69125,3.55783c-.54357,1.31228-1.36172,3.17021-1.36172,3.17021L1,27.30435s0,2.81573,0,5.07138l3.71171,1.20249c.5435,1.31245.81815,1.97536,1.36172,3.28764L4.3822,40.42369c1.59493,1.59492,1.599,1.5992,3.194,3.19412l3.55792-1.69132,3.28758,1.36176L14.9872,47c2.25557,0,3.82625,0,6.08182,0l.56553-3.71174,3.28758-1.36176,3.55792,1.69132c1.59493-1.59492,1.599-1.5992,3.194-3.19412l-1.59069-3.09036"/><g><line class="cls-2" x1="22" x2="24" y1="33" y2="33"/><line class="cls-2" x1="26" x2="28" y1="33" y2="33"/></g><line class="cls-2" x1="30" x2="36" y1="33" y2="33"/><g><line class="cls-2" x1="38" x2="40" y1="33" y2="33"/><line class="cls-2" x1="42" x2="44" y1="33" y2="33"/></g><g><line class="cls-2" x1="22" x2="24" y1="27" y2="27"/><line class="cls-2" x1="26" x2="28" y1="27" y2="27"/></g><g><line class="cls-2" x1="30" x2="32" y1="27" y2="27"/><line class="cls-2" x1="34" x2="36" y1="27" y2="27"/></g><g><line class="cls-2" x1="38" x2="40" y1="27" y2="27"/><line class="cls-2" x1="42" x2="44" y1="27" y2="27"/></g><g><line class="cls-2" x1="22" x2="26" y1="30" y2="30"/><line class="cls-2" x1="28" x2="30" y1="30" y2="30"/></g><line class="cls-2" x1="32" x2="34" y1="30" y2="30"/><g><line class="cls-2" x1="36" x2="38" y1="30" y2="30"/><line class="cls-2" x1="40" x2="44" y1="30" y2="30"/></g></g><g><g><polyline class="cls-2" points="22 1 1 1 1 24"/><line class="cls-2" x1="22" x2="0.89126" y1="5" y2="5"/><line class="cls-2" x1="48" x2="46" y1="11" y2="11"/></g><line class="cls-2" x1="47" x2="47" y1="14" y2="20"/></g><rect class="cls-2" height="12" width="22" x="25" y="1"/><g><polyline class="cls-2" points="32.25 4.5 29.75 7 32.25 9.5"/><polyline class="cls-2" points="39.75 4.5 42.25 7 39.75 9.5"/><line class="cls-2" x1="34.33333" x2="37.66667" y1="9.5" y2="4.5"/></g><line class="cls-2" x1="38" x2="40" y1="41" y2="41"/><line class="cls-2" x1="42" x2="44" y1="41" y2="41"/><line class="cls-2" x1="46" x2="48" y1="41" y2="41"/></svg>